<?xml version="1.0" encoding="UTF-8" standalone="no"?>
<svg
   xmlns:dc="http://purl.org/dc/elements/1.1/"
   xmlns:cc="http://creativecommons.org/ns#"
   xmlns:rdf="http://www.w3.org/1999/02/22-rdf-syntax-ns#"
   xmlns:svg="http://www.w3.org/2000/svg"
   xmlns="http://www.w3.org/2000/svg"
   viewBox="0 0 1280 720"
   height="720"
   width="1280"
   xml:space="preserve"
   id="svg2"
   version="1.1"><metadata
     id="metadata8"><rdf:RDF><cc:Work
         rdf:about=""><dc:format>image/svg+xml</dc:format><dc:type
           rdf:resource="http://purl.org/dc/dcmitype/StillImage" /></cc:Work></rdf:RDF></metadata><defs
     id="defs6"><clipPath
       id="clipPath18"
       clipPathUnits="userSpaceOnUse"><path
         style="clip-rule:evenodd"
         id="path16"
         d="M -6.1035e-5,540 H 960 V 0 L 0,6.1035e-5" /></clipPath><clipPath
       id="clipPath28"
       clipPathUnits="userSpaceOnUse"><path
         style="clip-rule:evenodd"
         id="path26"
         d="M 0,540 H 960 V 1.8311e-4 L -3.0518e-5,1.2207e-4" /></clipPath><clipPath
       id="clipPath38"
       clipPathUnits="userSpaceOnUse"><path
         style="clip-rule:evenodd"
         id="path36"
         d="M 0,540 H 960 V 1.8311e-4 L -3.0518e-5,1.2207e-4" /></clipPath><clipPath
       id="clipPath48"
       clipPathUnits="userSpaceOnUse"><path
         style="clip-rule:evenodd"
         id="path46"
         d="M -1.2207e-4,540 H 960 V -6.1035e-5 L -6.1035e-5,1.2207e-4" /></clipPath><clipPath
       id="clipPath58"
       clipPathUnits="userSpaceOnUse"><path
         style="clip-rule:evenodd"
         id="path56"
         d="M -1.2207e-4,540 H 960 V -6.1035e-5 L -6.1035e-5,0" /></clipPath><clipPath
       id="clipPath68"
       clipPathUnits="userSpaceOnUse"><path
         style="clip-rule:evenodd"
         id="path66"
         d="M -1.2207e-4,540 H 960 V -6.1035e-5 L -6.1035e-5,0" /></clipPath><clipPath
       id="clipPath78"
       clipPathUnits="userSpaceOnUse"><path
         style="clip-rule:evenodd"
         id="path76"
         d="M 1.4305e-5,0 H 960.00001 V 540 H 1.4305e-5 Z" /></clipPath></defs><g
     transform="matrix(1.3333333,0,0,-1.3333333,0,720)"
     id="g10"><g
       id="g12"><g
         clip-path="url(#clipPath18)"
         id="g14"><path
           id="path20"
           style="fill:none;stroke:#a5a5a5;stroke-width:1.5;stroke-linecap:butt;stroke-linejoin:miter;stroke-miterlimit:10;stroke-dasharray:none;stroke-opacity:1"
           d="m 403.02,233.49 141.89,81.93" /></g></g><g
       id="g22"><g
         clip-path="url(#clipPath28)"
         id="g24"><path
           id="path30"
           style="fill:#767171;fill-opacity:1;fill-rule:evenodd;stroke:none"
           d="m 408.86,251.25 1.56,0.9 c 0.86,0.5 4.34,-3.93 7.79,-9.89 3.44,-5.96 5.53,-11.19 4.67,-11.69 l -1.56,-0.9 z" /></g></g><g
       id="g32"><g
         clip-path="url(#clipPath38)"
         id="g34"><path
           id="path40"
           style="fill:none;stroke:#afabab;stroke-width:1;stroke-linecap:butt;stroke-linejoin:miter;stroke-miterlimit:10;stroke-dasharray:none;stroke-opacity:1"
           d="m 408.86,251.25 1.56,0.9 c 0.86,0.5 4.34,-3.93 7.79,-9.89 3.44,-5.96 5.53,-11.19 4.67,-11.69 l -1.56,-0.9 z" /></g></g><g
       id="g42"><g
         clip-path="url(#clipPath48)"
         id="g44"><path
           id="path50"
           style="fill:none;stroke:#a5a5a5;stroke-width:1.5;stroke-linecap:butt;stroke-linejoin:miter;stroke-miterlimit:10;stroke-dasharray:none;stroke-opacity:1"
           d="M 556.98,233.49 415.09,315.42" /></g></g><g
       id="g52"><g
         clip-path="url(#clipPath58)"
         id="g54"><path
           id="path60"
           style="fill:#767171;fill-opacity:1;fill-rule:evenodd;stroke:none"
           d="m 538.68,229.67 -1.56,0.9 c -0.86,0.5 1.23,5.73 4.67,11.69 3.45,5.96 6.93,10.39 7.79,9.89 l 1.56,-0.9 z" /></g></g><g
       id="g62"><g
         clip-path="url(#clipPath68)"
         id="g64"><path
           id="path70"
           style="fill:none;stroke:#afabab;stroke-width:1;stroke-linecap:butt;stroke-linejoin:miter;stroke-miterlimit:10;stroke-dasharray:none;stroke-opacity:1"
           d="m 538.68,229.67 -1.56,0.9 c -0.86,0.5 1.23,5.73 4.67,11.69 3.45,5.96 6.93,10.39 7.79,9.89 l 1.56,-0.9 z" /></g></g><g
       id="g72"><g
         clip-path="url(#clipPath78)"
         id="g74"><text
           id="text82"
           style="font-variant:normal;font-weight:300;font-size:18px;font-family:'Amasis MT Pro Light';-inkscape-font-specification:'Amasis MT Pro Light';writing-mode:lr-tb;fill:#000000;fill-opacity:1;fill-rule:nonzero;stroke:#000000;stroke-width:0.51428998;stroke-linecap:butt;stroke-linejoin:miter;stroke-miterlimit:10;stroke-dasharray:none;stroke-opacity:1"
           transform="matrix(1,0,0,-1,418.58,261.22)"><tspan
             id="tspan80"
             y="0"
             x="0 9.3599997 18.108 27.323999 35.82 39.995998 49.212002 57.834 61.919998 74.015999 82.512001 91.620003 95.795998 104.544 113.31">Fencing Achieve</tspan></text>
</g></g></g></svg>